<svg width="640" height="640" viewBox="0 0 640 640" fill="none" xmlns="http://www.w3.org/2000/svg">
  <rect width="640" height="640" rx="48" fill="#F4F1EA"/>
  <rect x="72" y="72" width="496" height="496" rx="36" fill="#FFFDFC"/>
  <circle cx="486" cy="158" r="42" fill="#FF6B9D" fill-opacity="0.18"/>
  <circle cx="154" cy="176" r="28" fill="#212529" fill-opacity="0.06"/>
  <rect x="206" y="206" width="228" height="228" rx="52" fill="#F3EEF8"/>
  <path d="M150 426L233.896 336.626C246.624 323.066 267.924 321.926 282.028 334.053L339.03 383.07C351.969 394.197 371.312 393.437 383.338 381.336L434.177 330.195C446.865 317.432 467.172 316.444 481.037 327.917L512 353.55V486H128V451.599C128 442.088 131.619 432.934 138.121 425.993C141.367 422.529 146.751 422.273 150 426Z" fill="#FF6B9D" fill-opacity="0.2"/>
  <circle cx="258" cy="280" r="34" fill="#FFFFFF" fill-opacity="0.72"/>
  <path d="M228 386C228 367.222 243.222 352 262 352H378C396.778 352 412 367.222 412 386V434H228V386Z" fill="#FFFFFF" fill-opacity="0.55"/>
  <rect x="168" y="500" width="304" height="18" rx="9" fill="#212529" fill-opacity="0.08"/>
  <text x="320" y="548" text-anchor="middle" fill="#212529" fill-opacity="0.55" font-family="Segoe UI, Arial, sans-serif" font-size="28" font-weight="600">Default Product Image</text>
</svg>
